%TF.GenerationSoftware,KiCad,Pcbnew,9.0.4*%
%TF.CreationDate,2025-09-18T16:51:08+08:00*%
%TF.ProjectId,XIAO,5849414f-2e6b-4696-9361-645f70636258,rev?*%
%TF.SameCoordinates,Original*%
%TF.FileFunction,Soldermask,Bot*%
%TF.FilePolarity,Negative*%
%FSLAX46Y46*%
G04 Gerber Fmt 4.6, Leading zero omitted, Abs format (unit mm)*
G04 Created by KiCad (PCBNEW 9.0.4) date 2025-09-18 16:51:08*
%MOMM*%
%LPD*%
G01*
G04 APERTURE LIST*
G04 Aperture macros list*
%AMRoundRect*
0 Rectangle with rounded corners*
0 $1 Rounding radius*
0 $2 $3 $4 $5 $6 $7 $8 $9 X,Y pos of 4 corners*
0 Add a 4 corners polygon primitive as box body*
4,1,4,$2,$3,$4,$5,$6,$7,$8,$9,$2,$3,0*
0 Add four circle primitives for the rounded corners*
1,1,$1+$1,$2,$3*
1,1,$1+$1,$4,$5*
1,1,$1+$1,$6,$7*
1,1,$1+$1,$8,$9*
0 Add four rect primitives between the rounded corners*
20,1,$1+$1,$2,$3,$4,$5,0*
20,1,$1+$1,$4,$5,$6,$7,0*
20,1,$1+$1,$6,$7,$8,$9,0*
20,1,$1+$1,$8,$9,$2,$3,0*%
G04 Aperture macros list end*
%ADD10C,1.524000*%
%ADD11C,1.600000*%
%ADD12RoundRect,0.140000X0.560000X0.660000X-0.560000X0.660000X-0.560000X-0.660000X0.560000X-0.660000X0*%
%ADD13C,1.100000*%
%ADD14RoundRect,0.110000X-0.440000X0.690000X-0.440000X-0.690000X0.440000X-0.690000X0.440000X0.690000X0*%
G04 APERTURE END LIST*
D10*
%TO.C,U10*%
X220123800Y-121327063D03*
X220123800Y-123867063D03*
X220123800Y-126407063D03*
X220123800Y-128947063D03*
X220123800Y-131487063D03*
X220123800Y-134027063D03*
X220123800Y-136567063D03*
X204883800Y-136567063D03*
X204883800Y-134027063D03*
X204883800Y-131487063D03*
X204883800Y-128947063D03*
X204883800Y-126407063D03*
X204883800Y-123867063D03*
X204883800Y-121327063D03*
%TD*%
%TO.C,U11*%
X137466400Y-121530263D03*
X137466400Y-124070263D03*
X137466400Y-126610263D03*
X137466400Y-129150263D03*
X137466400Y-131690263D03*
X137466400Y-134230263D03*
X137466400Y-136770263D03*
X152706400Y-136770263D03*
X152706400Y-134230263D03*
X152706400Y-131690263D03*
X152706400Y-129150263D03*
X152706400Y-126610263D03*
X152706400Y-124070263D03*
X152706400Y-121530263D03*
%TD*%
%TO.C,U6*%
X90160000Y-84830000D03*
X90160000Y-87370000D03*
X90160000Y-89910000D03*
X90160000Y-92450000D03*
X90160000Y-94990000D03*
X90160000Y-97530000D03*
X90160000Y-100070000D03*
X105400000Y-100070000D03*
X105400000Y-97530000D03*
X105400000Y-94990000D03*
X105400000Y-92450000D03*
X105400000Y-89910000D03*
X105400000Y-87370000D03*
X105400000Y-84830000D03*
%TD*%
%TO.C,U16*%
X228930000Y-85340000D03*
X228930000Y-87880000D03*
X228930000Y-90420000D03*
X228930000Y-92960000D03*
X228930000Y-95500000D03*
X228930000Y-98040000D03*
X228930000Y-100580000D03*
X244170000Y-100580000D03*
X244170000Y-98040000D03*
X244170000Y-95500000D03*
X244170000Y-92960000D03*
X244170000Y-90420000D03*
X244170000Y-87880000D03*
X244170000Y-85340000D03*
D11*
X241550994Y-89150000D03*
D12*
X242250000Y-89150000D03*
D11*
X241550994Y-91690000D03*
D12*
X242250000Y-91690000D03*
D11*
X241550994Y-94230000D03*
D12*
X242250000Y-94230000D03*
D11*
X241550994Y-96770000D03*
D12*
X242250000Y-96770000D03*
X230690994Y-96770000D03*
D11*
X231390994Y-96770000D03*
D12*
X230690994Y-94230000D03*
D11*
X231390994Y-94230000D03*
D12*
X230690994Y-91690000D03*
D11*
X231390994Y-91690000D03*
D12*
X230690994Y-89150000D03*
D11*
X231390994Y-89150000D03*
D13*
X235550000Y-98534811D03*
D14*
X235550000Y-99290000D03*
D13*
X237550000Y-98534811D03*
D14*
X237550000Y-99290000D03*
%TD*%
D10*
%TO.C,U4*%
X163526800Y-48708463D03*
X163526800Y-51248463D03*
X163526800Y-53788463D03*
X163526800Y-56328463D03*
X163526800Y-58868463D03*
X163526800Y-61408463D03*
X163526800Y-63948463D03*
X148286800Y-63948463D03*
X148286800Y-61408463D03*
X148286800Y-58868463D03*
X148286800Y-56328463D03*
X148286800Y-53788463D03*
X148286800Y-51248463D03*
X148286800Y-48708463D03*
%TD*%
%TO.C,U5*%
X199110000Y-85050000D03*
X199110000Y-87590000D03*
X199110000Y-90130000D03*
X199110000Y-92670000D03*
X199110000Y-95210000D03*
X199110000Y-97750000D03*
X199110000Y-100290000D03*
X183870000Y-100290000D03*
X183870000Y-97750000D03*
X183870000Y-95210000D03*
X183870000Y-92670000D03*
X183870000Y-90130000D03*
X183870000Y-87590000D03*
X183870000Y-85050000D03*
%TD*%
%TO.C,U17*%
X200340800Y-48779263D03*
X200340800Y-51319263D03*
X200340800Y-53859263D03*
X200340800Y-56399263D03*
X200340800Y-58939263D03*
X200340800Y-61479263D03*
X200340800Y-64019263D03*
X215580800Y-64019263D03*
X215580800Y-61479263D03*
X215580800Y-58939263D03*
X215580800Y-56399263D03*
X215580800Y-53859263D03*
X215580800Y-51319263D03*
X215580800Y-48779263D03*
D11*
X212961794Y-52589263D03*
D12*
X213660800Y-52589263D03*
D11*
X212961794Y-55129263D03*
D12*
X213660800Y-55129263D03*
D11*
X212961794Y-57669263D03*
D12*
X213660800Y-57669263D03*
D11*
X212961794Y-60209263D03*
D12*
X213660800Y-60209263D03*
X202101794Y-60209263D03*
D11*
X202801794Y-60209263D03*
D12*
X202101794Y-57669263D03*
D11*
X202801794Y-57669263D03*
D12*
X202101794Y-55129263D03*
D11*
X202801794Y-55129263D03*
D12*
X202101794Y-52589263D03*
D11*
X202801794Y-52589263D03*
D13*
X206960800Y-61974074D03*
D14*
X206960800Y-62729263D03*
D13*
X208960800Y-61974074D03*
D14*
X208960800Y-62729263D03*
%TD*%
D10*
%TO.C,U12*%
X106714000Y-121225463D03*
X106714000Y-123765463D03*
X106714000Y-126305463D03*
X106714000Y-128845463D03*
X106714000Y-131385463D03*
X106714000Y-133925463D03*
X106714000Y-136465463D03*
X91474000Y-136465463D03*
X91474000Y-133925463D03*
X91474000Y-131385463D03*
X91474000Y-128845463D03*
X91474000Y-126305463D03*
X91474000Y-123765463D03*
X91474000Y-121225463D03*
%TD*%
M02*
